# xmcd
#
# Track frame offsets:
#	150
#	15236
#	30267
#	60225
#	83384
#	109216
#
# Disc length: 1855 seconds
#
# Revision: 0
# Processed by: cddbd v1.5.2PL0 Copyright (c) Steve Scherf et al.
# Submitted via: dBpowerAMP V4.0
#
DISCID=2d073d06
DTITLE=Deep Blue feat. Christine - Flying [CDS]
DYEAR=2003
DGENRE=Dance
TTITLE0=Flying (Radio Remix)
TTITLE1=Flying (Radio Mix)
TTITLE2=Flying (Lagoon Club Mix)
TTITLE3=Flying (XPY Remix)
TTITLE4=Flying (Extended Mix)
TTITLE5=Flying (Lagoon Instrumental Club Mix)
EXTD=
EXTT0=
EXTT1=
EXTT2=
EXTT3=
EXTT4=
EXTT5=
PLAYORDER=
